<svg width="135" height="71" viewBox="0 0 135 71" fill="none" xmlns="http://www.w3.org/2000/svg">
<path d="M5.0057 23.44C3.90595 19.3059 5.82479 16.1905 9.10038 15.3065C12.376 14.4224 15.5596 15.9467 16.7124 20.2804C17.8425 24.5285 15.8648 27.5375 12.5892 28.4216C9.31363 29.3056 6.09786 27.5456 5.0057 23.44ZM29.0066 25.1823L24.6659 26.0789C24.302 24.2519 23.7674 22.0127 23.1379 19.6463C21.5219 20.113 19.942 20.6005 18.3981 21.1088L17.7155 18.5428C19.043 17.9096 20.5774 17.251 22.3187 16.5671C21.6645 14.4518 21.1051 12.4637 20.4506 10.8069L24.7897 9.33018C25.8276 11.2808 26.6829 13.9224 27.32 16.3173C27.449 16.802 27.9325 18.505 28.4479 21.3606C28.7056 22.7884 28.8969 24.0813 29.0066 25.1823ZM9.8821 22.0322C10.4964 24.3416 11.2613 25.2658 12.2012 25.0121C13.1412 24.7584 13.4036 23.6792 12.7589 21.2557C12.0991 18.7753 11.3588 18.0583 10.4189 18.312C9.47894 18.5657 9.245 19.6372 9.8821 22.0322Z" fill="#303030"/>
<path d="M104.13 10.9181L105.37 8.63601C106.409 9.13764 107.637 9.78353 108.351 10.1988C111.514 12.0379 111.418 13.6885 110.526 15.4223C110.243 15.9747 109.965 16.461 109.7 16.9217C109.451 17.3569 108.952 18.2271 108.102 19.4732C107.252 20.7193 106.27 21.9572 104.952 23.5454L101.21 21.4716C103.35 18.2116 104.465 16.2663 105.67 13.6904C106.298 12.4173 106.371 12.2893 105.063 11.4265C104.579 11.1447 104.273 10.9667 104.13 10.9181ZM110.761 16.1393L112.001 13.8571C113.04 14.3588 114.268 15.0047 114.982 15.4199C118.144 17.259 117.997 18.88 117.157 20.6435C116.991 20.991 116.771 21.375 116.537 21.7845C115.715 23.2179 114.223 25.5242 111.582 28.7665L107.84 26.6927C109.97 23.3923 111.364 20.9607 112.3 18.9115C112.877 17.6088 113.078 17.5549 111.694 16.6476C111.209 16.3658 110.903 16.1878 110.761 16.1393ZM127.49 26.3457L125.832 29.238C124.517 28.5072 123.242 27.7657 121.871 27.0712C120.548 29.2024 119.181 31.1718 117.961 32.6468L114.268 30.1918C115.441 28.3826 116.809 26.1746 117.938 24.2037C118.217 23.7174 119.083 22.2072 120.385 19.7567C121.024 18.524 121.563 17.4045 122.019 16.3725L126.119 18.4154C125.577 20.2505 124.571 22.3615 123.349 24.552C124.651 25.0699 126.014 25.6579 127.49 26.3457Z" fill="#303030"/>
<g clip-path="url(#clip0_140_1570)">
<path d="M36.1182 34.0162C36.1182 34.0162 37.3876 45.2328 40.7687 49.208C40.7687 49.208 39.782 52.757 36.1182 54.177L39.0782 56.306L36.1182 59.146C36.1182 59.146 42.6016 67.3812 48.0982 67.9488C53.5949 68.5164 64.8058 67.9488 64.8058 67.9488H87.2828C87.2828 67.9488 93.6258 61.986 95.3163 59.7136C95.3163 59.7136 93.4834 57.1584 92.216 56.7322C92.216 56.7322 93.8749 55.8798 94.5254 54.4598C94.5254 54.4598 90.2427 50.626 90.1024 48.7818C90.1024 48.7818 96.2713 43.1038 94.5254 34.0162C94.5254 34.0162 92.129 32.7097 81.7427 36.8403C81.7427 36.8403 76.157 31.8673 64.8058 32.4449C53.4545 33.0224 50.0161 36.6969 50.0161 36.6969C50.0161 36.6969 36.8221 32.5962 36.1163 34.0162H36.1182Z" fill="#EABA81" stroke="#231815" stroke-width="0.197722" stroke-miterlimit="10"/>
<path d="M42.7953 60.4266C42.7953 60.4266 49.4546 53.9081 51.2519 53.9898C52.6814 54.0555 60.2819 41.875 60.2819 41.875L65.7172 45.0197L70.9846 40.2658L76.416 50.0664C76.416 50.0664 86.3001 56.9254 88.0856 60.4266C89.871 63.9278 87.1938 67.7138 87.1938 67.7138H47.1571C47.1571 67.7138 40.1636 65.4414 42.7953 60.4266Z" fill="#FEF5EF"/>
<path d="M56.6418 53.0299L52.023 51.9444L59.8073 38.6088L65.5591 44.1355L71.2713 38.3897L78.0709 50.9487L74.247 52.4364L69.2229 43.1058L65.4226 45.7108L61.4227 43.5021L56.6418 53.0299Z" fill="#E2AD7C"/>
<path d="M64.2007 31.5108C64.2007 31.5108 64.9303 39.6026 65.6856 39.6026C66.4409 39.6026 67.2358 31.5108 67.2358 31.5108H64.2007Z" fill="#D7A16A"/>
<path d="M70.0692 32.3911L69.2229 38.4953L71.902 32.3911H70.0692Z" fill="#D7A16A"/>
<path d="M59.143 32.5464L61.4227 32.4708V38.3897L59.143 32.5464Z" fill="#D7A16A"/>
<path d="M39.2343 50.9108L40.6144 49.0825L45.1719 52.8167L39.2343 50.9108Z" fill="#D7A16A"/>
<path d="M37.8008 53.7608L38.6827 51.6437L44.0232 54.1133L37.8008 53.7608Z" fill="#D7A16A"/>
<path d="M92.2694 49.7896L92.6965 52.044L86.8914 52.9621L92.2694 49.7896Z" fill="#D7A16A"/>
<path d="M89.9976 47.3917L90.9684 49.4669L85.5745 51.815L89.9976 47.3917Z" fill="#D7A16A"/>
<path d="M43.5941 43.3428C43.5467 43.2014 40.8221 37.143 36.7806 36.671C36.7806 36.671 37.7159 47.6904 39.9027 48.5926L43.5941 43.3428Z" fill="#FEF5EF"/>
<path d="M87.9076 42.7752C87.955 42.6338 90.6797 36.5754 94.7211 36.1034C94.7211 36.1034 93.7859 47.1228 91.5991 48.025L87.9076 42.7752Z" fill="#FEF5EF"/>
<path d="M36.0293 33.7832C36.0293 33.7832 36.8162 44.9918 40.1992 48.967C40.1992 48.967 39.695 52.524 36.0293 53.944L38.9892 56.073L36.0293 58.913C36.0293 58.913 42.5126 67.1482 48.0093 67.7158C53.5059 68.2834 64.7168 67.7158 64.7168 67.7158C64.7168 67.7158 82.0254 68.1898 84.1173 67.7158C86.2092 67.2418 93.5368 61.753 95.2293 59.4806C95.2293 59.4806 93.3964 56.9254 92.129 56.4992C92.129 56.4992 94.5788 55.4098 95.2293 53.9918C95.2293 53.9918 91.1107 50.0644 90.9704 48.2182C90.9704 48.2182 96.9752 42.2554 95.2293 33.1698C95.2293 33.1698 91.5694 31.5128 81.6537 36.6092C81.6537 36.6092 76.068 31.6363 64.7168 32.2138C53.3656 32.7914 49.9272 36.4659 49.9272 36.4659C49.9272 36.4659 35.5 31.7288 36.0273 33.7852L36.0293 33.7832Z" stroke="#231815" stroke-width="1.97722" stroke-miterlimit="10"/>
<path d="M28.7709 67.5724C28.7709 67.5724 26.8984 61.8048 32.0827 59.7634C37.267 57.722 43.2184 60.1896 43.7819 64.1648C44.3455 68.14 42.2318 68.9924 41.5259 69.2752C40.8201 69.558 38.4257 69.4166 38.4257 67.1462C38.4257 67.1462 38.0025 69.4903 36.0293 69.3827C34.056 69.2752 33.9156 68.2814 33.9156 67.1462C33.9156 67.1462 32.6462 69.6396 31.3788 69.3867C30.1114 69.1338 28.7709 67.5724 28.7709 67.5724Z" fill="#EABA81" stroke="#231815" stroke-width="2.96583" stroke-miterlimit="10"/>
<path d="M48.4324 37.6389C48.4324 37.6389 54.2474 31.937 65.7173 32.2198C77.1871 32.5026 83.1069 37.6389 83.1069 37.6389V29.2703C83.1069 29.2703 77.3611 23.9866 65.7153 23.419C54.0695 22.8514 48.8555 28.1032 48.0093 30.517L48.4324 37.6389Z" fill="white" stroke="#231815" stroke-width="0.197722" stroke-miterlimit="10"/>
<path d="M48.9979 34.303C48.9979 34.303 53.8144 30.7978 64.2007 30.1386C74.6504 29.4754 79.8188 32.883 79.8188 32.883V27.9618L83.1069 29.2703V37.6389C83.1069 37.6389 77.0685 32.4229 64.7168 32.2118C52.3651 32.0007 48.9959 37.1549 48.9959 37.1549V34.305L48.9979 34.303Z" fill="#D3E5EC"/>
<path d="M48.4324 37.6389C48.4324 37.6389 54.2474 31.937 65.7173 32.2198C77.1871 32.5026 83.1069 37.6389 83.1069 37.6389V29.2703C83.1069 29.2703 77.3611 23.9866 65.7153 23.419C54.0695 22.8514 48.8555 28.1032 48.0093 30.517L48.4324 37.6389Z" stroke="#231815" stroke-width="1.97722" stroke-miterlimit="10"/>
<path d="M48.0112 30.517C47.8254 30.8994 35.4657 30.8018 37.1582 19.4438C37.1582 19.4438 40.5413 9.93202 49.2806 11.6348C49.2806 11.6348 54.0813 0.418233 64.7187 0.985834C75.3562 1.55343 79.1624 5.81343 81.1356 11.7762C81.1356 11.7762 85.7861 10.3562 89.8749 13.9052C93.9638 17.4542 96.2179 22.9908 92.6945 26.1156C92.6945 26.1156 87.3382 32.7874 81.7011 28.388C76.0641 23.9886 68.7661 23.419 65.7192 23.419C62.6723 23.419 51.3962 23.5604 48.0132 30.517H48.0112Z" fill="white" stroke="#231815" stroke-width="0.197722" stroke-miterlimit="10"/>
<path d="M37.5794 20.6268C38.05 24.9326 45.8659 29.4495 48.9959 28.2466L47.7126 31.1802C47.7126 31.1802 38.4434 28.1669 37.7989 25.4166C37.7989 25.4166 36.7331 19.159 37.5774 20.6268H37.5794Z" fill="#D1E3EA"/>
<path d="M81.0407 27.2986C81.3235 27.4878 92.5264 29.4017 94.3949 22.9072C94.3949 22.9072 92.8744 28.4477 88.2734 29.3878L84.0342 30.1366L81.0407 27.2966V27.2986Z" fill="#D3E5EC"/>
<path d="M48.0113 30.517C47.3607 31.8514 41.4192 29.1886 40.741 28.7425C31.8653 22.9072 40.2605 9.87624 49.2806 11.6348C49.3182 11.6428 50.5263 9.35246 50.6153 9.21105C51.8253 7.31507 53.3142 5.57243 55.0739 4.17434C59.4989 0.659202 65.5116 0.340549 70.7671 1.85415C75.9672 3.35182 79.2257 6.70764 81.2108 11.7463C84.3605 11.2265 87.3817 11.7424 89.875 13.9052C91.868 15.6359 93.689 18.0796 94.2585 20.7104C95.6208 27.0138 86.577 32.1939 81.7011 28.386C76.0641 23.9846 68.7662 23.417 65.7193 23.417C62.6724 23.417 51.3963 23.5584 48.0132 30.515L48.0113 30.517Z" stroke="#231815" stroke-width="1.97722" stroke-miterlimit="10"/>
<path d="M53.9765 18.0696C53.9765 18.0696 57.4347 20.2723 64.9184 20.2723C72.4022 20.2723 76.673 17.5976 77.2385 16.8866C77.804 16.1756 72.6573 22.1165 64.9184 21.6923C57.1796 21.2681 53.9765 18.0696 53.9765 18.0696Z" fill="#D3E5EC"/>
<path d="M28.7709 67.5724C28.7709 67.5724 26.8984 61.8048 32.0827 59.7634C37.267 57.722 43.2184 60.1896 43.7819 64.1648C44.3455 68.14 42.2318 68.9924 41.5259 69.2752C40.8201 69.558 38.4257 69.4166 38.4257 67.1462C38.4257 67.1462 38.0025 69.4903 36.0293 69.3827C34.056 69.2752 33.9156 68.2814 33.9156 67.1462C33.9156 67.1462 32.6462 69.6396 31.3788 69.3867C30.1114 69.1338 28.7709 67.5724 28.7709 67.5724Z" fill="#EABA81"/>
<path d="M34.8251 59.2316C34.8251 59.2316 35.5547 64.2723 36.31 64.2723C37.0653 64.2723 37.2354 59.2077 37.2354 59.2077L34.8251 59.2296V59.2316Z" fill="#D7A16A"/>
<path d="M38.4138 59.5622C37.6723 59.5622 39.1671 64.2723 39.1671 64.2723L40.2625 60.2911C40.2625 60.2911 39.1552 59.5622 38.4158 59.5622H38.4138Z" fill="#D7A16A"/>
<path d="M32.1539 60.0482C31.4124 60.0482 32.6482 63.4797 32.6482 63.4797L33.7436 59.4985C33.7436 59.4985 32.8301 59.63 32.1539 60.0482Z" fill="#D7A16A"/>
<path d="M98.118 50.9487C98.118 50.9487 96.4275 47.4833 98.6123 43.1516C100.797 38.8219 105.519 33.6398 113.412 35.1295C113.412 35.1295 117.43 38.7781 115.456 47.3897C113.483 56.0013 105.519 55.9296 104.884 56.7103C104.249 57.491 102.628 61.1834 102.628 61.1834C102.628 61.1834 97.4121 57.3137 96.0043 57.9889L98.5411 54.5813C98.5411 54.5813 99.6681 53.3744 98.9642 52.4523L98.118 50.9487Z" fill="#231815"/>
<path d="M100.042 48.967C100.042 48.967 99.3874 45.7088 101.361 43.0819C103.334 40.455 106.505 37.141 112.142 37.3083C112.142 37.3083 114.116 39.2541 113.412 45.7108C112.708 52.1675 107.632 53.5875 106.294 53.9081C104.955 54.2288 103.757 54.3562 102.63 56.1387C101.503 57.9212 100.657 59.8371 100.657 59.8371L98.4719 58.3693L101.009 54.9776C101.009 54.9776 102.136 52.9123 101.149 51.4904L100.042 48.969V48.967Z" fill="#D1E3EA"/>
<path d="M87.8404 67.5724C87.8404 67.5724 85.968 61.8048 91.1522 59.7634C96.3365 57.722 102.288 60.1896 102.851 64.1648C103.415 68.14 101.301 68.9924 100.595 69.2752C99.8896 69.558 97.4952 69.4166 97.4952 67.1462C97.4952 67.1462 97.072 69.4903 95.0988 69.3827C93.1255 69.2752 92.9851 68.2814 92.9851 67.1462C92.9851 67.1462 91.7158 69.6396 90.4484 69.3867C89.181 69.1338 87.8404 67.5724 87.8404 67.5724Z" stroke="#231815" stroke-width="2.96583" stroke-miterlimit="10"/>
<path d="M87.8404 67.5724C87.8404 67.5724 85.968 61.8048 91.1522 59.7634C96.3365 57.722 102.288 60.1896 102.851 64.1648C103.415 68.14 101.301 68.9924 100.595 69.2752C99.8896 69.558 97.4952 69.4166 97.4952 67.1462C97.4952 67.1462 97.072 69.4903 95.0988 69.3827C93.1255 69.2752 92.9851 68.2814 92.9851 67.1462C92.9851 67.1462 91.7158 69.6396 90.4484 69.3867C89.181 69.1338 87.8404 67.5724 87.8404 67.5724Z" fill="#EABA81"/>
<path d="M96.5224 59.2316C96.5224 59.2316 95.7928 64.2723 95.0375 64.2723C94.2822 64.2723 94.1121 59.2077 94.1121 59.2077L96.5224 59.2296V59.2316Z" fill="#D7A16A"/>
<path d="M92.4888 59.5363C93.2303 59.5363 91.7355 64.2464 91.7355 64.2464L90.6401 60.2653C90.6401 60.2653 91.7474 59.5363 92.4869 59.5363H92.4888Z" fill="#D7A16A"/>
<path d="M98.7467 59.8709C99.2114 60.5102 98.1991 63.5195 98.1991 63.5195L97.6316 59.5383L98.7467 59.8729V59.8709Z" fill="#D7A16A"/>
<path d="M53.0373 44.4302C53.0373 44.4302 56.796 43.8626 58.2058 48.1206C59.6155 52.3786 57.7352 56.6386 53.6008 57.3954C49.4665 58.1522 45.8956 53.6094 47.5861 48.1206C47.5861 48.1206 49.0888 44.1454 53.0353 44.4302H53.0373Z" fill="white"/>
<path d="M77.282 44.4063C77.282 44.4063 82.0748 44.1474 83.5775 48.2182C85.0802 52.289 82.6383 57.2799 79.631 57.481C76.6236 57.6822 72.3014 56.0332 72.1136 50.9427C71.9257 45.8522 76.2717 44.3605 77.282 44.4063Z" fill="white"/>
<path d="M49.4665 47.5072C46.554 49.3056 47.8412 54.1033 47.8412 54.1033C44.7449 46.5572 51.4635 44.4023 51.4635 44.4023C51.7996 44.3147 54.3561 43.7411 56.5054 45.3025C59.056 47.1587 58.9018 50.3133 58.8879 50.5125C58.9077 52.7092 57.8558 54.7147 56.0961 55.7026C55.7679 55.8878 54.0556 56.7999 52.0863 56.1307C50.2732 55.5134 49.075 53.8384 48.81 52.287C48.81 52.287 48.1754 49.1164 49.4685 47.5072H49.4665Z" fill="#231815"/>
<path d="M82.0728 47.6247C82.1322 47.79 82.5256 48.0469 82.6443 48.1943C83.8859 49.7477 83.9472 51.9544 83.6151 53.8225C83.6882 53.4122 83.9117 52.994 84.0105 52.5817C84.2458 51.6178 84.3447 50.6101 84.2359 49.6202C83.9235 46.7743 81.5963 44.5019 78.7946 44.1016C78.5712 44.0697 78.3458 44.0498 78.1184 44.0438C74.6148 43.9363 71.8901 46.7563 71.8585 50.2356C71.8288 53.5775 74.6484 56.77 78.1046 56.3159C79.801 56.0929 81.4026 54.9836 82.1618 53.4281C83.0535 51.6058 82.7352 49.4629 82.0709 47.6227L82.0728 47.6247Z" fill="#231815"/>
<path d="M75.0141 46.9495C75.0141 46.9495 77.2682 45.7267 78.2726 47.5968C79.3482 49.6023 77.7526 51.4007 75.7793 51.3748C75.0161 51.3031 72.9123 49.0825 75.0161 46.9495H75.0141Z" fill="white" stroke="#231815" stroke-width="0.197722" stroke-miterlimit="10"/>
<path d="M65.3831 53.9081C65.3831 53.9081 68.2718 53.9081 68.4834 55.5412C68.6949 57.1743 66.6861 58.2378 66.263 58.3095L66.2274 59.6937C66.2274 59.6937 66.8027 61.3626 67.649 61.4682C68.4952 61.5737 69.6104 61.0539 69.9267 60.805C69.9267 60.805 69.5155 62.6153 68.3529 62.7926C67.1903 62.9698 66.1206 62.4261 65.5571 61.1117C65.5571 61.1117 65.045 62.8304 63.0895 62.7926C61.7272 62.5556 61.4761 61.7868 61.4188 61.042C61.4188 61.042 63.1745 62.2011 64.1968 61.279C65.219 60.3569 64.9204 59.8351 64.9204 59.375V58.5585C64.9204 58.5585 62.3481 57.0668 62.3836 55.9316C62.4192 54.7964 63.6174 53.9798 65.3791 53.9081H65.3831Z" fill="#231815"/>
<path d="M65.1359 55.0075C65.1359 55.0075 66.6505 54.8302 67.1448 55.2923C67.6391 55.7543 67.4275 56.3578 66.7928 56.7123C66.1581 57.0668 66.0889 57.3874 65.559 57.2799C65.0292 57.1723 62.7395 56.1447 63.7973 55.2564C63.7973 55.2564 64.1473 55.0314 65.1359 55.0075Z" fill="#E8B0CF" stroke="#231815" stroke-width="0.197722" stroke-miterlimit="10"/>
<path d="M37.8008 36.8941C37.8008 36.8941 41.2551 37.5334 42.734 39.6624C44.213 41.7914 44.2842 42.9983 44.2842 42.9983L46.3286 42.5721C46.3286 42.5721 43.4399 44.2749 42.734 45.6949C42.0281 47.1149 41.607 50.8053 40.0569 51.3729L40.2348 48.3875C40.2348 48.3875 39.9639 48.5408 40.2447 47.7601C40.5255 46.9794 42.303 43.4344 43.0069 43.1496C43.0069 43.1496 41.3243 38.808 37.8008 36.8901V36.8941Z" fill="#231815"/>
<path d="M93.4518 36.4679C93.4518 36.4679 89.9976 37.1071 88.5186 39.2361C87.0396 41.3651 86.9685 42.572 86.9685 42.572L84.924 42.1459C84.924 42.1459 87.8127 43.8487 88.5186 45.2687C89.2245 46.6887 89.9738 49.6262 91.1958 50.9467L92.2694 49.6003C92.2694 49.6003 91.0277 47.2563 90.7469 46.4736C90.4662 45.6909 89.3569 42.9246 88.6531 42.6398C88.6531 42.6398 89.9284 38.3798 93.4518 36.4639V36.4679Z" fill="#231815"/>
<path d="M74.6286 47.5809C73.9722 48.9292 74.0789 51.2195 75.9573 51.4645C77.0626 51.6079 77.9207 50.873 78.2627 49.8573C78.4842 49.2 78.5119 48.3895 78.3142 47.7243C78.0907 46.9735 77.5213 46.605 76.7739 46.5393C75.9059 46.4636 75.032 46.7564 74.6286 47.5809Z" fill="white" stroke="#231815" stroke-width="0.197722" stroke-miterlimit="10"/>
<path d="M52.8297 47.5809C52.0151 49.0367 52.5193 51.5581 54.4431 51.4864C55.9913 51.4286 56.802 49.7756 56.6695 48.3735C56.5034 46.6408 54.6765 45.8064 53.2904 47.0053C53.1065 47.1646 52.9543 47.3598 52.8297 47.5809Z" fill="white" stroke="#231815" stroke-width="0.197722" stroke-miterlimit="10"/>
<path d="M64.9105 55.9714C65.1834 55.9475 65.4602 55.9535 65.7311 55.9893L65.6006 55.9714C65.6896 55.9834 65.7765 55.9993 65.8635 56.0172C65.994 56.0451 66.1265 56.0371 66.2451 55.9674C66.348 55.9077 66.4449 55.7882 66.4725 55.6707C66.5022 55.5432 66.4943 55.3998 66.4231 55.2863C66.3559 55.1807 66.2531 55.0852 66.1285 55.0573C65.7311 54.9716 65.3198 54.9378 64.9145 54.9736C64.782 54.9856 64.6634 55.0214 64.5645 55.119C64.4795 55.2046 64.4142 55.348 64.4202 55.4715C64.4261 55.595 64.4676 55.7344 64.5645 55.824C64.6555 55.9097 64.784 55.9814 64.9145 55.9694L64.9105 55.9714Z" fill="white"/>
<path d="M16.2491 37.3083C16.2491 37.3083 17.1883 36.7646 17.564 37.6389C17.9397 38.5132 19.2545 41.7296 19.82 42.6298C20.3855 43.53 22.4972 46.844 23.3434 46.4417C24.1897 46.0394 23.0152 44.2271 23.0152 44.2271C23.0152 44.2271 18.1295 36.3384 19.209 35.5577C20.2886 34.777 20.9945 35.8644 20.9945 35.8644L25.4571 43.4842C25.4571 43.4842 26.1155 44.952 27.0547 44.6672C27.9938 44.3824 26.4911 40.7398 24.6583 37.9954C22.8254 35.251 22.074 34.2572 22.7324 33.6418C23.3909 33.0264 24.33 33.9724 24.6583 34.3986C24.9865 34.8248 31.6122 42.7752 31.9404 43.4384C32.2686 44.1016 34.9477 47.2662 34.054 50.2038C33.1603 53.1414 32.6917 53.2907 33.2078 54.1153C33.7238 54.9398 35.709 57.9909 35.709 57.9909L29.2474 60.6576L28.0848 57.483C28.0848 57.483 28.0729 56.4414 26.2005 56.1407C24.3281 55.84 21.1329 55.0852 19.4878 50.3034C17.8428 45.5216 15.1696 37.7564 16.2491 37.3083Z" fill="#231815"/>
<path d="M21.0894 47.79C21.0894 47.79 23.2979 49.2498 24.0967 48.5906C24.8955 47.9314 25.5994 46.844 25.5994 46.844C25.5994 46.844 27.0566 48.1087 27.9009 47.1925C28.7452 46.2764 29.6389 44.0418 29.6389 44.0418C29.6389 44.0418 32.5058 46.8599 31.9878 49.0049C31.4698 51.1498 30.673 52.7112 31.0486 53.6572C31.4243 54.6032 33.0693 58.0108 33.0693 58.0108L31.1435 58.7676C31.1435 58.7676 29.9691 54.9816 27.8554 54.3662C25.7418 53.7508 23.1575 53.1932 22.2183 50.9407C21.2792 48.6882 21.0913 47.788 21.0913 47.788L21.0894 47.79Z" fill="#D3E5EC"/>
<path d="M101.802 48.8316C101.802 48.8316 101.667 40.9967 110.234 38.5869" stroke="white" stroke-width="0.988611" stroke-miterlimit="10"/>
</g>
<defs>
<clipPath id="clip0_140_1570">
<rect width="100" height="70.8983" fill="white" transform="translate(16)"/>
</clipPath>
</defs>
</svg>
