<svg width="32" height="32" viewBox="0 0 32 32" fill="none" xmlns="http://www.w3.org/2000/svg">
<path d="M29.3333 16C29.3333 8.66667 23.3333 2.66667 16 2.66667C8.66663 2.66667 2.66663 8.66667 2.66663 16C2.66663 23.3333 8.66663 29.3333 16 29.3333C23.3333 29.3333 29.3333 23.3333 29.3333 16Z" stroke="#42EEEE" stroke-width="1.5" stroke-linecap="round" stroke-linejoin="round"/>
<path d="M10.9599 10.96C11.1474 10.7727 11.4016 10.6675 11.6666 10.6675C11.9316 10.6675 12.1858 10.7727 12.3733 10.96L15.9999 14.5853L19.6266 10.96C19.7194 10.8672 19.8296 10.7936 19.9508 10.7434C20.0721 10.6931 20.202 10.6673 20.3333 10.6673C20.4645 10.6673 20.5945 10.6931 20.7157 10.7434C20.837 10.7936 20.9471 10.8672 21.0399 10.96C21.1327 11.0528 21.2064 11.163 21.2566 11.2842C21.3068 11.4055 21.3327 11.5354 21.3327 11.6667C21.3327 11.7979 21.3068 11.9279 21.2566 12.0491C21.2064 12.1704 21.1327 12.2805 21.0399 12.3733L17.4146 16L21.0399 19.6267C21.2274 19.8141 21.3327 20.0683 21.3327 20.3333C21.3327 20.5984 21.2274 20.8526 21.0399 21.04C20.8525 21.2274 20.5983 21.3327 20.3333 21.3327C20.0682 21.3327 19.814 21.2274 19.6266 21.04L15.9999 17.4147L12.3733 21.04C12.1859 21.2274 11.9317 21.3327 11.6666 21.3327C11.4016 21.3327 11.1474 21.2274 10.9599 21.04C10.7725 20.8526 10.6672 20.5984 10.6672 20.3333C10.6672 20.0683 10.7725 19.8141 10.9599 19.6267L14.5853 16L10.9599 12.3733C10.7727 12.1858 10.6675 11.9317 10.6675 11.6667C10.6675 11.4017 10.7727 11.1475 10.9599 10.96Z" fill="#3CEEEE"/>
</svg>
