<svg width="30" height="30" viewBox="0 0 30 30" fill="none" xmlns="http://www.w3.org/2000/svg">
<path d="M18.519 8.34115C22.0047 7.17949 23.8985 9.08205 22.7458 12.567L20.1566 20.3328C18.4183 25.5557 15.5639 25.5557 13.8256 20.3328L13.0571 18.0278L10.7515 17.2594C5.52749 15.5215 5.52749 12.6768 10.7515 10.9297L18.519 8.34115Z" fill="#42EEEE" stroke="black" stroke-width="1.5" stroke-linecap="round" stroke-linejoin="round"/>
<path d="M12.8335 17.75L16.5835 14" stroke="white" stroke-width="1.875" stroke-linecap="round" stroke-linejoin="round"/>
<path d="M19.0835 28C25.3335 28 27.8335 25.5 27.8335 19.25V11.75C27.8335 5.5 25.3335 3 19.0835 3H11.5835C5.3335 3 2.8335 5.5 2.8335 11.75V19.25C2.8335 25.5 5.3335 28 11.5835 28H19.0835Z" stroke="black" stroke-width="2" stroke-linecap="round" stroke-linejoin="round"/>
</svg>
