<svg width="30" height="30" viewBox="0 0 30 30" fill="none" xmlns="http://www.w3.org/2000/svg">
<g opacity="0.6">
<path d="M22.7169 10.4584C21.2794 10.4063 20.1336 9.22921 20.1336 7.77088C20.1336 6.28129 21.3315 5.08337 22.8211 5.08337C24.3107 5.08337 25.5086 6.29171 25.5086 7.77088C25.4982 9.22921 24.3524 10.4063 22.9149 10.4584C22.8524 10.448 22.7794 10.448 22.7169 10.4584Z" stroke="black" stroke-width="1.5" stroke-linecap="round" stroke-linejoin="round"/>
<path d="M22.8414 18.0419C24.2685 18.2815 25.8414 18.0315 26.9455 17.2919C28.4143 16.3127 28.4143 14.7085 26.9455 13.7294C25.831 12.9898 24.2372 12.7398 22.8101 12.9898" stroke="black" stroke-width="1.5" stroke-linecap="round" stroke-linejoin="round"/>
<path d="M5.57981 10.4584C7.01731 10.4063 8.16315 9.22921 8.16315 7.77088C8.16315 6.28129 6.96523 5.08337 5.47565 5.08337C3.98607 5.08337 2.78815 6.29171 2.78815 7.77088C2.79856 9.22921 3.9444 10.4063 5.3819 10.4584C5.4444 10.448 5.51731 10.448 5.57981 10.4584Z" stroke="black" stroke-width="1.5" stroke-linecap="round" stroke-linejoin="round"/>
<path d="M6.45579 18.0419C5.02871 18.2815 3.45579 18.0315 2.35162 17.2919C0.882874 16.3127 0.882874 14.7085 2.35162 13.7294C3.46621 12.9898 5.05995 12.7398 6.48704 12.9898" stroke="black" stroke-width="1.5" stroke-linecap="round" stroke-linejoin="round"/>
<path d="M14.3793 15.7192C12.2924 15.6436 10.6288 13.9347 10.6288 11.8175C10.6288 9.6549 12.368 7.91577 14.5305 7.91577C16.6931 7.91577 18.4322 9.67003 18.4322 11.8175C18.4171 13.9347 16.7536 15.6587 14.6667 15.7192C14.5759 15.7041 14.4701 15.7041 14.3793 15.7192Z" fill="#42EEEE" stroke="black" stroke-width="2" stroke-linecap="round" stroke-linejoin="round"/>
<path d="M8.26682 23.6551C10.6865 25.2732 18.6487 25.2732 21.0683 23.6551C23.2007 22.2335 21.2007 19.9046 19.0683 18.483C16.6638 16.88 12.6865 16.88 10.2668 18.483C8.13449 19.9046 6.13449 22.2335 8.26682 23.6551Z" fill="#42EEEE" stroke="black" stroke-width="2" stroke-linecap="round" stroke-linejoin="round"/>
</g>
</svg>
