<svg width="30" height="30" viewBox="0 0 30 30" fill="none" xmlns="http://www.w3.org/2000/svg">
<path d="M11.5 18.1429C11.5 17.6497 11.8997 17.25 12.3929 17.25H17.6071C18.1003 17.25 18.5 17.6497 18.5 18.1429V26.25H11.5V18.1429Z" fill="#42EEEE"/>
<path d="M18.75 26.75V20.5C18.75 18.7325 18.75 17.8487 18.2 17.3C17.6525 16.75 16.7687 16.75 15 16.75C13.2325 16.75 12.3487 16.75 11.8 17.3M11.25 26.75V20.5" stroke="black" stroke-width="1.5" stroke-linecap="round" stroke-linejoin="round"/>
<path d="M17.5 11.125C17.5 11.788 17.2366 12.4239 16.7678 12.8928C16.2989 13.3616 15.663 13.625 15 13.625C14.337 13.625 13.7011 13.3616 13.2322 12.8928C12.7634 12.4239 12.5 11.788 12.5 11.125C12.5 10.462 12.7634 9.82607 13.2322 9.35723C13.7011 8.88839 14.337 8.625 15 8.625C15.663 8.625 16.2989 8.88839 16.7678 9.35723C17.2366 9.82607 17.5 10.462 17.5 11.125Z" fill="#42EEEE" stroke="black" stroke-width="1.5"/>
<path d="M27.5 26.75H2.5M2.5 13L7.57875 8.9375M27.5 13L17.3425 4.875C16.6776 4.34311 15.8515 4.05334 15 4.05334C14.1485 4.05334 13.3224 4.34311 12.6575 4.875L11.68 5.65625M19.375 6.125V3.625C19.375 3.45924 19.4408 3.30027 19.5581 3.18306C19.6753 3.06585 19.8342 3 20 3H23.125C23.2908 3 23.4497 3.06585 23.5669 3.18306C23.6842 3.30027 23.75 3.45924 23.75 3.625V9.875M5 26.75V11.125M25 11.125V16.125M25 26.75V21.125" stroke="black" stroke-width="2" stroke-linecap="round"/>
</svg>
