<svg width="26" height="26" viewBox="0 0 26 26" fill="none" xmlns="http://www.w3.org/2000/svg">
<g id="Component 14/icon_Email" clip-path="url(#clip0_715_6363)">
<path id="Vector" d="M2.3626 4.7251H22.8376C22.8376 4.7251 24.4126 4.7251 24.4126 6.3001V18.9001C24.4126 18.9001 24.4126 20.4751 22.8376 20.4751H2.3626C2.3626 20.4751 0.787598 20.4751 0.787598 18.9001V6.3001C0.787598 6.3001 0.787598 4.7251 2.3626 4.7251Z" stroke="#B5B5B5" stroke-width="2" stroke-linecap="round" stroke-linejoin="round"/>
<path id="Vector_2" d="M16.4712 10.4736L23.8475 17.8499" stroke="#B5B5B5" stroke-linecap="round" stroke-linejoin="round"/>
<path id="Vector_3" d="M8.72887 10.4736L1.05029 18.1523" stroke="#B5B5B5" stroke-linecap="round" stroke-linejoin="round"/>
<g id="Vector_4">
<path d="M24.0238 5.26465L14.0351 12.1526C13.6132 12.444 13.1125 12.6 12.5998 12.6C12.087 12.6 11.5864 12.444 11.1644 12.1526L1.17578 5.26465" fill="#42EEEE"/>
<path d="M24.0238 5.26465L14.0351 12.1526C13.6132 12.444 13.1125 12.6 12.5998 12.6C12.087 12.6 11.5864 12.444 11.1644 12.1526L1.17578 5.26465" stroke="#B5B5B5" stroke-width="2" stroke-linecap="round" stroke-linejoin="round"/>
</g>
</g>
<defs>
<clipPath id="clip0_715_6363">
<rect width="25.2" height="25.2" fill="white"/>
</clipPath>
</defs>
</svg>
