<svg width="40" height="40" viewBox="0 0 40 40" fill="none" xmlns="http://www.w3.org/2000/svg">
<g id="Group 1000006160">
<path id="Vector" fill-rule="evenodd" clip-rule="evenodd" d="M19.3619 20.2648C15.9751 20.2648 13.2295 17.5192 13.2295 14.1323C13.2295 10.7455 15.9751 8 19.3619 8C22.7487 8 25.4943 10.7455 25.4943 14.1323C25.4943 17.5192 22.7487 20.2648 19.3619 20.2648Z" fill="#42EEEE" stroke="#B5B5B5" stroke-width="2" stroke-linecap="round" stroke-linejoin="round"/>
<g id="Vector_2">
<path d="M28.8397 32.5295C28.8397 28.22 24.8481 24.7246 19.9199 24.7246C14.9916 24.7246 11 28.22 11 32.5295" fill="#42EEEE"/>
<path d="M28.8397 32.5295C28.8397 28.22 24.8481 24.7246 19.9199 24.7246C14.9916 24.7246 11 28.22 11 32.5295" stroke="#B5B5B5" stroke-width="2" stroke-linecap="round" stroke-linejoin="round"/>
</g>
<path id="Vector_3" d="M39 26C39 30.9014 38.0136 34.0722 36.0429 36.0429C34.0722 38.0136 30.9014 39 26 39H14C9.09863 39 5.92781 38.0136 3.95711 36.0429C1.9864 34.0722 1 30.9014 1 26V14C1 9.09863 1.9864 5.92781 3.95711 3.95711C5.92781 1.9864 9.09863 1 14 1H26C30.9014 1 34.0722 1.9864 36.0429 3.95711C38.0136 5.92781 39 9.09863 39 14V26Z" stroke="#B5B5B5" stroke-width="2" stroke-linecap="round" stroke-linejoin="round"/>
</g>
</svg>
