<svg width="30" height="30" viewBox="0 0 30 30" fill="none" xmlns="http://www.w3.org/2000/svg">
<g opacity="0.6">
<path d="M18.6244 27.2385H12.3744C11.1035 27.2385 8.02019 27.1055 8.10352 26.8172C8.33269 23.9347 12.1139 19.6619 15.4994 19.6619C18.8848 19.6619 22.666 23.9347 22.8952 26.8172C21.9785 27.1055 19.8952 27.2385 18.6244 27.2385Z" fill="#42EEEE" stroke="black" stroke-width="1.5" stroke-linecap="round" stroke-linejoin="round"/>
<path d="M18.75 27C25 27 27.5 24.5 27.5 18.25V10.75C27.5 4.5 25 2 18.75 2H11.25C5 2 2.5 4.5 2.5 10.75V18.25C2.5 24.5 5 27 11.25 27H18.75Z" stroke="black" stroke-width="2" stroke-linecap="round" stroke-linejoin="round"/>
<path d="M15.2292 16.5578C13.1667 16.5578 11.5 14.7729 11.5 12.5777C11.5 10.3825 13.1667 8.60864 15.2292 8.60864C17.2917 8.60864 18.9583 10.3825 18.9583 12.5777C18.9583 14.7729 17.2917 16.5578 15.2292 16.5578Z" fill="#3CEEEE" stroke="black" stroke-width="1.5" stroke-linecap="round" stroke-linejoin="round"/>
</g>
</svg>
